<svg xmlns="http://www.w3.org/2000/svg" viewBox="0 0 313.34 271"><defs><style>.cls-1{fill:#888;}.cls-2{fill:#e3e3e3;}.cls-3,.cls-8{fill:#999;}.cls-4{fill:#7a7a7a;}.cls-5{fill:#171717;}.cls-6{fill:#333;}.cls-7{fill:#1bcf60;}.cls-8{stroke:#565656;stroke-miterlimit:10;}.cls-9{fill:#89c632;}</style></defs><title>CN2017</title><g id="Layer_2" data-name="Layer 2"><g id="Layer_1-2" data-name="Layer 1"><path class="cls-1" d="M307.9,210.69H4.9c-6.54,0-6.54-200.27,0-200.27h303C315.15,10.42,315.15,210.69,307.9,210.69Z"/><rect class="cls-2" x="4.9" width="303" height="271" rx="8.88" ry="8.88"/><rect class="cls-1" x="11.73" y="6" width="290.67" height="259" rx="6.36" ry="6.36"/><rect class="cls-3" x="14.9" y="8.33" width="283.67" height="214" rx="4.63" ry="4.63"/><path class="cls-4" d="M21.9,20c78.11-4.07,151.94-9.64,269,0V211a1811.53,1811.53,0,0,1-269,0Z"/><path class="cls-5" d="M29.9,35V197c0,14.67,253,14.67,253,0V35C282.9,19,29.9,19,29.9,35Z"/><rect class="cls-2" x="14.9" y="224.58" width="284" height="3.92"/><rect class="cls-2" x="14.9" y="230.67" width="284" height="32"/><rect class="cls-6" x="17.78" y="230.44" width="3.25" height="32.23" transform="translate(38.81 493.1) rotate(180)"/><rect class="cls-6" x="23.78" y="230.44" width="3.25" height="32.23" transform="translate(50.81 493.1) rotate(180)"/><rect class="cls-6" x="29.78" y="230.44" width="3.25" height="32.23" transform="translate(62.81 493.1) rotate(180)"/><rect class="cls-6" x="35.78" y="230.44" width="3.25" height="32.23" transform="translate(74.81 493.1) rotate(180)"/><rect class="cls-6" x="41.84" y="230.44" width="3.25" height="32.23" transform="translate(86.93 493.1) rotate(180)"/><rect class="cls-6" x="47.84" y="230.44" width="3.25" height="32.23" transform="translate(98.93 493.1) rotate(180)"/><rect class="cls-6" x="53.84" y="230.44" width="3.25" height="32.23" transform="translate(110.93 493.1) rotate(180)"/><rect class="cls-6" x="59.84" y="230.44" width="3.25" height="32.23" transform="translate(122.93 493.1) rotate(180)"/><rect class="cls-6" x="65.72" y="230.44" width="3.25" height="32.23" transform="translate(134.68 493.1) rotate(180)"/><rect class="cls-6" x="71.72" y="230.44" width="3.25" height="32.23" transform="translate(146.68 493.1) rotate(180)"/><rect class="cls-6" x="77.72" y="230.44" width="3.25" height="32.23" transform="translate(158.68 493.1) rotate(180)"/><rect class="cls-6" x="83.72" y="230.44" width="3.25" height="32.23" transform="translate(170.68 493.1) rotate(180)"/><circle class="cls-7" cx="247.87" cy="246.47" r="3.09"/><rect class="cls-4" x="264.9" y="235.44" width="22.06" height="22.19"/><rect class="cls-3" x="265.78" y="236.63" width="20.06" height="19.88"/><circle class="cls-8" cx="275.98" cy="246.82" r="6.13"/><path class="cls-6" d="M164.84,250.52a2.7,2.7,0,0,0,4.26-1.11,7.65,7.65,0,0,0,0-6.15,2.72,2.72,0,0,0-4.33-1c0-.65,0-1.22,0-1.79a4.56,4.56,0,0,0-.2-1.54c-.11-.31,0-.4.28-.45a8.15,8.15,0,0,1,4.5.31l.42.16v-4.2c0-1.22,0-1.22,1.21-1.22.69,0,1.38,0,2.06,0,.51,0,.59.15.59.61,0,3.75,0,7.5,0,11.25a15.61,15.61,0,0,1-.18,3.54,6.71,6.71,0,0,1-7.45,5.49c-.4,0-.8-.1-1.19-.16-.15,0-.31-.05-.24-.28a12.78,12.78,0,0,0,.23-3.24A1.52,1.52,0,0,1,164.84,250.52Z"/><path class="cls-6" d="M149.38,238.51a7.73,7.73,0,0,0-.35,2.79c0,.29,0,.4-.38.38-2.74-.15-4.16,1-4.54,3.74a7.28,7.28,0,0,0,.17,2.94,3.68,3.68,0,0,0,4.07,2.81c.65-.06.64-.06.67.61a6.64,6.64,0,0,0,.31,2.32c.1.24,0,.26-.2.28-4,.54-7.63-.79-8.81-5.05a10.69,10.69,0,0,1,.11-6.18,6.66,6.66,0,0,1,6.13-4.77c.48,0,1,0,1.45,0A6.4,6.4,0,0,1,149.38,238.51Z"/><path class="cls-9" d="M158.36,252.49c0-.12,0-.23,0-.35a2.73,2.73,0,0,1,.59-2c1.12-1.3,1.15-3,1-4.63a5.54,5.54,0,0,0-.89-2.79c0-.07-.08-.17-.14-.2-.75-.41-.59-1.11-.59-1.76s0-1.37,0-2.06c0-.28.09-.39.38-.38.73,0,1.47,0,2.21.07a2.22,2.22,0,0,1,2.3,2.5c0,.89,0,1.77,0,2.66a4,4,0,0,0,.11.89c.2.78.7,1.1,1.77,1.16s1,.06,1,1.05c0,.4-.12.5-.51.5-1.88,0-2.35.5-2.41,2.39a22.74,22.74,0,0,1-.09,3,1.93,1.93,0,0,1-1.63,1.73,14.86,14.86,0,0,1-2.9.16c-.28,0-.28-.17-.28-.37C158.36,253.53,158.36,253,158.36,252.49Z"/><path class="cls-9" d="M155.45,240.22c0,.17,0,.34,0,.5a2.47,2.47,0,0,1-.59,1.95,5.34,5.34,0,0,0-1,3.66,6.52,6.52,0,0,0,.76,3.48,1.23,1.23,0,0,0,.29.41c.58.39.56,1,.54,1.55s0,1.47,0,2.21c0,.32-.08.45-.42.44a13.81,13.81,0,0,1-2.65-.17,2,2,0,0,1-1.64-1.67,10.17,10.17,0,0,1-.1-1.8c0-.64,0-1.27,0-1.91a1.55,1.55,0,0,0-1.58-1.71c-.2,0-.4,0-.6,0s-.65.14-.72-.12a4.17,4.17,0,0,1,0-1.29c0-.14.19-.1.3-.11.38,0,.77,0,1.15-.08A1.51,1.51,0,0,0,150.6,244a25.89,25.89,0,0,0,.07-2.76c0-2.07.54-2.69,2.6-2.91.61-.07,1.24,0,1.86,0,.29,0,.33.15.32.38C155.44,239.18,155.45,239.7,155.45,240.22Z"/><path class="cls-6" d="M175,242.12c0-1.16,0-2.26,0-3.35a.26.26,0,0,1,.25-.3c2.63-.42,5.13-.24,7.14,1.78a7,7,0,0,1,1.85,4.7c0,.78,0,1.57,0,2.36,0,.27-.09.33-.34.33h-8.58c-.26,0-.34-.07-.34-.33,0-.77,0-1.54,0-2.31,0-.33.11-.38.4-.38,1.47,0,2.94,0,4.42,0,.35,0,.45-.08.43-.44a3.09,3.09,0,0,0-4.82-2.33Z"/><path class="cls-6" d="M174.56,249.9c1.49,1.48,3.28,1.43,5.1,1.17a10.06,10.06,0,0,0,3.4-1.17l.69-.35c0,1.22,0,2.36,0,3.5,0,.2-.12.25-.27.3a14.46,14.46,0,0,1-8.61.68,6.74,6.74,0,0,1-1.62-.66c-.25-.14-.34-.24-.13-.51A8.6,8.6,0,0,0,174.56,249.9Z"/><path class="cls-6" d="M162.51,259.16c.12-.51.24-1,.37-1.53.06-.25.73-.45.91-.28s0,.16,0,.23c-.27.83-.55,1.65-.8,2.48-.14.46-.51.19-.76.28s-.28-.17-.32-.35a9.51,9.51,0,0,0-.44-1.4c-.12.46-.27.92-.34,1.4s-.45.28-.7.36-.34-.11-.41-.32c-.28-.87-.57-1.74-.86-2.64a1.77,1.77,0,0,1,.63-.06c.23,0,.32.07.37.29a8.2,8.2,0,0,0,.48,1.55c.13-.52.29-1,.39-1.56.06-.33.27-.28.48-.28s.46-.08.53.28c.11.53.26,1,.39,1.57Z"/><path class="cls-6" d="M151.21,258.82c0-.39,0-.79,0-1.18s.19-.31.41-.32.42,0,.41.32c0,.73,0,1.47,0,2.2,0,.16.12.42-.15.45s-.53.13-.73-.16c-.33-.46-.68-.9-1.07-1.41A4.73,4.73,0,0,0,150,260c0,.36-.21.3-.42.31s-.42,0-.41-.32c0-.72,0-1.44,0-2.15,0-.17-.15-.45.15-.5s.58-.11.8.22.64.86,1,1.28Z"/><path class="cls-6" d="M171.1,260.26c-.61.15-1.09.14-1.26-.54-.05-.21-.26-.18-.42-.16s-.15.21-.13.31c.1.54-.3.43-.58.46s-.3-.26-.31-.47c0-.73,0-1.47,0-2.2,0-.26.07-.35.34-.34.45,0,.9,0,1.35,0a1,1,0,0,1,.78,1.67c-.31.39-.18.59,0,.88C171,260,171,260.12,171.1,260.26Zm-1.48-1.4c.33,0,.56-.06.57-.42s-.26-.43-.57-.45-.33.24-.35.48S169.31,258.94,169.62,258.86Z"/><path class="cls-6" d="M174.73,257.4l-.13.15c-.86,1-.86,1-.14,2.1l.35.56c-1.05.52-1.26-.41-1.67-1-.2.16-.39.3-.34.54.13.61-.34.51-.66.55s-.23-.13-.23-.3c0-.82,0-1.64,0-2.45,0-.39.27-.26.45-.26s.47-.1.44.28,0,.47,0,.8C173.41,257.93,173.7,256.93,174.73,257.4Z"/><path class="cls-6" d="M166,260.31a1.5,1.5,0,1,1,1.65-1.51A1.53,1.53,0,0,1,166,260.31Zm.75-1.52a.73.73,0,0,0-.74-.72.75.75,0,0,0-.72.75.76.76,0,0,0,.77.75A.74.74,0,0,0,166.74,258.79Z"/><path class="cls-6" d="M153,258.78c0-.47-.18-1.09,0-1.36s.91-.07,1.39-.1c.18,0,.37,0,.55,0s.41,0,.41.33-.13.36-.39.35-.6,0-.9,0-.27.06-.27.26.1.26.27.26h.75c.23,0,.41,0,.41.32s-.18.36-.43.35h-.75c-.15,0-.25.05-.25.23s.12.21.27.21c.33,0,.67,0,1,0s.33.11.33.35,0,.33-.3.33q-.93,0-1.86,0c-.26,0-.31-.1-.3-.33,0-.4,0-.8,0-1.2Z"/><path class="cls-6" d="M157.41,257.32h.85c.25,0,.48-.05.47.36s-.2.37-.44.34-.48.07-.45.43,0,1,0,1.45-.33.36-.57.42c-.4.08-.33-.21-.33-.44,0-.48,0-1,0-1.45s-.1-.45-.42-.41-.46,0-.45-.39.26-.3.47-.31Z"/></g></g></svg>