<svg xmlns="http://www.w3.org/2000/svg" viewBox="0 0 346.93 47.6"><defs><style>.cls-1{fill:#8ac640;}.cls-2{fill:#fff;}</style></defs><title>EndPoint</title><g id="Layer_2" data-name="Layer 2"><g id="Layer_1-2" data-name="Layer 1"><polygon class="cls-1" points="43.25 0.53 0 0.53 0 12.53 0 14.28 0 17.7 11.42 17.7 11.42 14.28 43.25 14.28 43.25 0.53"/><polygon class="cls-2" points="11.42 18.63 11.24 18.63 0 18.63 0 33.29 11.42 33.29 11.42 29.34 28.18 29.34 28.18 18.63 11.42 18.63"/><polygon class="cls-2" points="32.08 30.24 32.08 34.16 0 34.16 0 47.59 43.25 47.59 43.25 36.78 43.25 34.16 43.25 30.24 32.08 30.24"/><polygon class="cls-2" points="59.67 34.16 59.67 25.96 52.17 18.63 47.17 18.63 47.17 47.59 49 47.59 52.17 47.59 63 47.59 63 34.16 59.67 34.16"/><polygon class="cls-1" points="86.33 31.29 59.67 4.28 59.67 0.53 47.17 0.53 47.17 17.7 52.17 17.7 77.67 42.95 77.67 47.59 90.5 47.59 90.5 31.29 86.33 31.29"/><polygon class="cls-2" points="74.33 0.53 74.33 12.95 77.67 12.95 77.67 20.95 86.94 30.59 90.5 30.59 90.5 20.95 90.5 15.34 90.5 12.95 90.5 0.53 74.33 0.53"/><polygon class="cls-1" points="124.68 0.53 106.66 0.53 104.59 0.53 94.33 0.53 94.33 34.16 94.33 47.59 110 47.59 110 34.16 106.66 34.16 106.66 14.11 124.68 14.11 124.68 17.7 137.67 17.7 137.67 0.53 124.68 0.53"/><polygon class="cls-2" points="137.67 18.63 125.5 18.63 125.5 22.97 114.5 34.16 111 34.16 111 47.59 122.67 47.59 122.67 43.78 135.82 29.62 137.67 29.62 137.67 18.63"/><polygon class="cls-2" points="155.5 0.53 141.17 0.53 141.17 47.59 155.5 47.59 155.5 12.95 171.5 12.95 171.5 0.53 155.5 0.53"/><polygon class="cls-1" points="171.94 0.53 171.94 20.84 156 20.84 156 32.9 171.94 32.9 184.67 32.9 184.67 0.53 171.94 0.53"/><polygon class="cls-1" points="200.33 0.53 188 0.53 188 32.9 200.33 32.9 200.33 14.11 231.66 14.11 231.66 0.53 200.33 0.53"/><polygon class="cls-2" points="219.38 15.16 219.38 34.16 188 34.16 188 47.59 219.38 47.59 219.38 47.6 231.67 47.6 231.67 15.16 219.38 15.16"/><rect class="cls-1" x="235.25" y="0.53" width="15.13" height="13.58"/><polygon class="cls-2" points="253 35.53 249.5 35.53 249.5 15.16 236 15.16 236 47.6 249.5 47.6 249.5 47.59 253 47.59 253 35.53"/><polygon class="cls-2" points="269.09 33.63 269.09 25.43 269.08 25.43 261.58 18.1 256.58 18.1 256.58 47.06 258.42 47.06 261.58 47.06 272.42 47.06 272.42 33.63 269.09 33.63"/><polygon class="cls-1" points="295.75 30.76 269.08 3.75 269.08 0 256.58 0 256.58 17.17 261.58 17.17 287.08 42.42 287.08 47.06 299.91 47.06 299.91 30.76 295.75 30.76"/><polygon class="cls-2" points="346.93 0 315.02 0 315.02 0 303.79 0 303.79 18.1 315.02 18.1 315.02 14.11 346.93 14.11 346.93 0"/><polygon class="cls-1" points="331.64 35.61 331.64 15.34 318.86 15.34 318.86 47.59 329.75 47.59 331.64 47.59 334.67 47.59 334.67 35.61 331.64 35.61"/><polygon class="cls-2" points="283.75 0 283.75 12.42 287.08 12.42 287.08 20.42 296.35 30.06 299.91 30.06 299.91 20.42 299.91 12.42 299.92 12.42 299.92 0 283.75 0"/></g></g></svg>